<?xml version="1.0" encoding="utf-8"?>
<!-- Generator: Adobe Illustrator 25.4.1, SVG Export Plug-In . SVG Version: 6.00 Build 0)  -->
<svg version="1.1" id="Layer_1" xmlns="http://www.w3.org/2000/svg" xmlns:xlink="http://www.w3.org/1999/xlink" x="0px" y="0px"
	 viewBox="0 0 1429.8 1299.1" style="enable-background:new 0 0 1429.8 1299.1;" xml:space="preserve">
<style type="text/css">
	.st0{fill:#0B6B74;}
</style>
<path class="st0" d="M827.6,703.1c-2.7,8.5,2.8,17.7,11.7,18.9c1.9,0.3,3.4,0.1,5.2-0.1c5.9-0.6,11.6-5.4,17.2-8.5
	c68.2-38.9,136.5-77.8,210-119.8v82.9c-0.6,3.9-1.3,7.8-2.1,11.7c-3.3,15.2-20.6,30.4-35.3,39.4c-60.3,36.4-122,70.5-183.2,105.4
	c-6.3,3.6-14.3,5.8-18.3,11.1c-0.9,1.3-1.7,2.6-2.4,4c-5.2,10.2,1.8,21.9,13.3,22.6c1.1,0.1,2.2,0.1,3.3,0.1
	c4.3-0.1,8.4-4.3,12.6-6.7c70.8-40.4,141.5-80.7,212.3-121v54.7c0,32.3-16.7,62.3-44,79.4c-0.4,0.3-0.8,0.5-1.2,0.7
	c-0.6,0.4-1.3,0.8-1.9,1.1l-2.1,1.2c-2.7,1.5-5.6,3.1-8.5,4.7c-74.2,39.5-147.1,81.4-220.4,122.6c-40,22.6-81,26.2-123.7,10.1
	l-13.8-7.6c-4.4-4.3-6.3-10.1-6.3-18.6c0.5-110.5-0.1-221.1,0.4-331.5c0.3-47.4,22.1-82.8,64.1-105c39.1-20.6,78.3-40.8,117.5-61.2
	c1.7-0.9,3.7-0.8,5.3,0.1l10.7,6.2c2,1.2,4.5-0.6,4-2.9l-6-31.3c-0.2-1.3-1.3-2.2-2.6-2.2l-36.4-1.1l-14.4-0.5
	c-2.8-0.1-3.9,3.7-1.5,5.1l8.1,4.7c1.5,0.9,1.5,3.1-0.1,3.9c-25.8,13.3-51.6,26.7-77.3,40.2c-7.9,4.2-15.8,8.4-23.7,12.6
	c-52.6,28.3-79.2,72.7-79.1,132.8c0.1,100.1-0.1,200.2-0.1,300.4V990c-29.5-16.5-55.9-30.7-81.2-45.5l-0.1-0.1
	c-2.9-1.7-5.8-3.4-8.8-5.1c0,0-0.1,0-0.1-0.1c-0.1-0.1-0.2-0.1-0.3-0.2c-2.7-1.7-5.5-3.3-8.2-5c-6-3.6-11.3-13.7-11.3-20.7
	c-0.7-109.7-1.1-219.4-0.1-329.1c0.4-44,23.6-75.5,61.4-96.4c22.9-12.6,45.9-25.1,68.9-37.6c21.1-11.5,42.2-22.9,63.3-34.4
	c1.4-0.8,3.1-0.7,4.5,0.1l10.9,6.3c2,1.2,4.5-0.6,4-2.9l-6-31.4c-0.2-1.3-1.3-2.2-2.6-2.2l-50.8-1.6c-2.8-0.1-3.9,3.7-1.5,5.1
	l8.8,5.1c1.4,0.8,1.4,2.9-0.1,3.7c-18.5,10-37.1,20-55.7,30c-8.4,4.6-16.9,9.1-25.2,13.7c-2.7,1.5-5.3,2.9-7.9,4.4
	c-8.6,4.7-17.1,9.4-25.7,14.2c-52.9,29.4-79.6,74.4-79.4,135.5c0,3.8,0,7.6,0,11.3c0,6.9,0,13.9,0,20.8c0.2,83.8,0,167.6,0,251.4
	c0,0.8,0,1.7,0,2.5c0,2,0,4,0.1,6c0,1.8,0,3.7,0.1,5.5c0,0.3,0,0.5,0,0.8c0,3.5,0.1,7,0.1,10.4c0,1.4,0,2.9,0,4.3v1.1
	c-7.8-4.1-15.7-8.2-23.5-12.3h0l-32.6-17.9c-1.3-0.7-2.5-1.3-3.7-2C386.6,861.3,368,830,367.9,796c0-1.3,0-2.6,0-3.9l-0.9-287.5
	c1.7-37,25-70.1,60.7-83.5c5.6-4.7,12.1-8.2,18.9-11c3-2.3,6-3.7,8.9-5.4c69.3-38.2,138.7-76.4,208-114.6
	c36.5-16.9,47.8-18.3,57.8-18.4c19.9,0,36.8,4.6,52.9,11.9l30,16.5L1023.3,421c8,4.4,15.2,9.9,21.5,16.3
	c18.2,18.6,23.3,39.6,25.1,47.3c2.2,9.5,9.8,42.8-8.5,70.2c-6.7,10-13.6,17.4-30.7,26.7c-63.4,34.3-125.4,71.1-188,106.9
	c-4.1,2.4-9.3,6.8-11.3,8.8C829.6,699.1,828.5,700.5,827.6,703.1z"/>
</svg>
