<?xml version="1.0" encoding="utf-8"?>
<!-- Generator: Adobe Illustrator 25.4.1, SVG Export Plug-In . SVG Version: 6.00 Build 0)  -->
<svg version="1.1" id="Layer_1" xmlns="http://www.w3.org/2000/svg" xmlns:xlink="http://www.w3.org/1999/xlink" x="0px" y="0px"
	 viewBox="0 0 1429.8 1299.1" style="enable-background:new 0 0 1429.8 1299.1;" xml:space="preserve">
<g>
	<path d="M421.3,1009.6v21.2h-18.5c-2.5,0-4.3,0.4-5.3,1.1c-1,0.7-1.6,2-1.6,3.8c0,2,0.5,3.3,1.6,3.9c1.1,0.6,3.3,0.9,6.6,0.9h19.1
		v27.2h-22.3c-10.5,0-18.5-2.5-24-7.5c-5.5-5-8.3-12.2-8.3-21.7v-37.4c0-9.1,2.6-16.2,7.9-21.2c5.2-5,12.6-7.5,22.1-7.5h24.7v27.4
		H405c-4.9,0-7.3,1.6-7.3,4.8c0,1.9,0.6,3.2,1.7,3.9c1.2,0.7,3.2,1.1,6.2,1.1H421.3z"/>
	<path d="M480.2,1035.8l25.9-1c-0.7,10.1-4.5,18.3-11.2,24.8c-6.8,6.5-15,9.7-24.7,9.7c-10.2,0-18.9-3.6-26-10.7
		c-7.1-7.1-10.6-15.9-10.6-26.2c0-9.8,3.6-18.2,10.7-25.2c7.1-7,15.7-10.5,25.6-10.5c8.7,0,16.4,2.7,23.1,8.2
		c6.7,5.5,10.8,12.5,12.4,21l-26.5,1c-2.3-3-5.2-4.5-8.7-4.5c-3,0-5.4,1-7.3,2.9c-1.9,2-2.9,4.4-2.9,7.4c0,3,1,5.6,3,7.6
		c2,2.1,4.6,3.1,7.6,3.1C475.2,1043.6,478.3,1041,480.2,1035.8z"/>
	<path d="M550.5,996.7c9.9,0,18.3,3.6,25.4,10.7c7.1,7.1,10.6,15.6,10.6,25.5c0,10.1-3.6,18.6-10.7,25.7
		c-7.2,7.1-15.8,10.6-25.9,10.6c-10.1,0-18.7-3.6-25.9-10.7c-7.2-7.1-10.8-15.7-10.8-25.7c0-10.2,3.6-18.8,10.8-25.7
		C531.2,1000.2,540,996.7,550.5,996.7z M549.8,1022.5c-2.8,0-5.2,1-7.1,3c-2,2-2.9,4.5-2.9,7.4c0,2.9,1,5.4,3,7.4
		c2,2.1,4.3,3.1,7.1,3.1c2.8,0,5.2-1,7.2-3.1c2-2.1,3-4.5,3-7.4c0-2.9-1-5.4-2.9-7.4C555.1,1023.5,552.7,1022.5,549.8,1022.5z"/>
	<path d="M693,1067.9h-26.1v-37.6c0-2.9-0.3-4.9-0.9-6c-0.6-1.1-1.7-1.7-3.3-1.7c-2.9,0-4.4,2.6-4.4,7.8v37.5h-26.1v-37.6
		c0-2.9-0.3-4.9-0.9-6c-0.6-1.1-1.7-1.7-3.3-1.7c-2.9,0-4.3,2.6-4.3,7.8v37.5h-26.1V1025c0-7.8,2.6-14.5,7.9-19.9
		c5.3-5.5,11.6-8.2,19.1-8.2c7.7,0,14.7,3.3,20.8,9.8c6.8-6.5,13.7-9.8,20.5-9.8c8.7,0,15.7,3.2,21,9.5c4.1,4.9,6.2,12.1,6.2,21.6
		V1067.9z"/>
	<path d="M776.8,1037.3h-39.6c-0.6-2-0.9-3.8-0.9-5.5c0-2.3,0.4-4.6,1.3-6.8h13.3c-0.9-5.2-3.8-7.8-8.7-7.8c-3.3,0-5.9,1.4-8,4.2
		c-2.1,2.8-3.1,6.3-3.1,10.7c0,4.5,1,8.2,3,11c2,2.8,4.6,4.2,7.8,4.2c2.6,0,5.1-1.3,7.5-3.9l14.9,17.9c-6.9,5.4-14.7,8.2-23.1,8.2
		c-10.3,0-19-3.5-26.1-10.4c-7-6.9-10.6-15.5-10.6-25.8c0-10.2,3.6-18.8,10.7-25.9c7.1-7,15.8-10.5,26.2-10.5
		c10.1,0,18.6,3.4,25.5,10.3c6.9,6.9,10.3,15.3,10.3,25.4C777.1,1033.4,777,1035,776.8,1037.3z"/>
	<path d="M810.9,972.5v26.7h11.7v27.6h-11.7c0,5.5,0.9,9.4,2.6,11.5s4.9,3.1,9.6,3.1v27.5c-1.4,0-2.4,0.1-3,0.1
		c-5.9,0-11.5-1.4-16.7-4.1c-5.2-2.7-9.4-6.5-12.6-11.2c-4-6-6-14-6-23.9v-57.2H810.9z"/>
	<path d="M873.7,997.5v27.9c-1.8-1-3.5-1.5-5-1.5c-4.8,0-7.1,3.6-7.1,10.9v33h-26.1v-38.1c0-10.1,2.7-18.1,8.2-24.1
		c5.5-6,12.8-9,22-9C867.8,996.7,870.4,997,873.7,997.5z"/>
	<path d="M907.5,998.2v69.7h-26.1v-69.7H907.5z M894.5,967.1c3.5,0,6.6,1.2,9.2,3.7c2.6,2.5,3.9,5.4,3.9,8.8c0,3.6-1.2,6.6-3.7,8.9
		c-2.4,2.3-5.6,3.5-9.4,3.5c-3.8,0-7-1.2-9.4-3.5c-2.4-2.3-3.7-5.3-3.7-8.9c0-3.4,1.3-6.3,3.9-8.8
		C887.9,968.4,891,967.1,894.5,967.1z"/>
	<path d="M965.6,1035.8l25.9-1c-0.7,10.1-4.5,18.3-11.2,24.8c-6.8,6.5-15,9.7-24.7,9.7c-10.2,0-18.9-3.6-26-10.7
		c-7.1-7.1-10.6-15.9-10.6-26.2c0-9.8,3.6-18.2,10.7-25.2c7.1-7,15.7-10.5,25.6-10.5c8.7,0,16.4,2.7,23.1,8.2
		c6.7,5.5,10.8,12.5,12.4,21l-26.5,1c-2.3-3-5.2-4.5-8.7-4.5c-3,0-5.4,1-7.3,2.9c-1.9,2-2.9,4.4-2.9,7.4c0,3,1,5.6,3,7.6
		c2,2.1,4.6,3.1,7.6,3.1C960.6,1043.6,963.8,1041,965.6,1035.8z"/>
	<path d="M1041.7,1041.7v27c-2.1,0.4-4.1,0.6-5.9,0.6c-10.5,0-19.2-3.4-26.2-10.3c-7-6.9-10.5-15.5-10.5-25.9
		c0-10.1,3.5-18.7,10.6-25.7c7.1-7,15.6-10.5,25.7-10.5c11.3,0,20.2,3.3,26.7,9.9c6.5,6.6,9.7,15.6,9.7,27v34.2h-26.1v-32.3
		c0-3.7-0.9-6.6-2.7-8.8c-1.8-2.2-4.2-3.3-7.2-3.3c-2.7,0-5.1,1-7.1,3c-2,2-3,4.4-3,7.1c0,2.9,0.9,5.3,2.7,7.1
		c1.8,1.9,4.1,2.8,6.9,2.8C1037.6,1043.6,1039.7,1042.9,1041.7,1041.7z"/>
</g>
<path d="M827.6,592.8c-2.7,8.5,2.8,17.7,11.7,18.9c1.9,0.3,3.4,0.1,5.2-0.1c5.9-0.6,11.6-5.4,17.2-8.5
	c68.2-38.9,136.5-77.8,210-119.8v82.9c-0.6,3.9-1.3,7.8-2.1,11.7c-3.3,15.2-20.6,30.4-35.3,39.4c-60.3,36.4-122,70.5-183.2,105.4
	c-6.3,3.6-14.3,5.8-18.3,11.1c-0.9,1.3-1.7,2.6-2.4,4c-5.2,10.2,1.8,21.9,13.3,22.6c1.1,0.1,2.2,0.1,3.3,0.1
	c4.3-0.1,8.4-4.3,12.6-6.7c70.8-40.4,141.5-80.7,212.3-121v54.7c0,32.3-16.7,62.3-44,79.4c-0.4,0.3-0.8,0.5-1.2,0.7
	c-0.6,0.4-1.3,0.8-1.9,1.1l-2.1,1.2c-2.7,1.5-5.6,3.1-8.5,4.7C939.9,813.9,867,855.8,793.7,897c-40,22.6-81,26.2-123.7,10.1
	l-13.8-7.6c-4.4-4.3-6.3-10.1-6.3-18.6c0.5-110.5-0.1-221.1,0.4-331.5c0.3-47.4,22.1-82.8,64.1-105c39.1-20.6,78.3-40.8,117.5-61.2
	c1.7-0.9,3.7-0.8,5.3,0.1l10.7,6.2c2,1.2,4.5-0.6,4-2.9l-6-31.3c-0.2-1.3-1.3-2.2-2.6-2.2L807,352l-14.4-0.5
	c-2.8-0.1-3.9,3.7-1.5,5.1l8.1,4.7c1.5,0.9,1.5,3.1-0.1,3.9c-25.8,13.3-51.6,26.7-77.3,40.2c-7.9,4.2-15.8,8.4-23.7,12.6
	c-52.6,28.3-79.2,72.7-79.1,132.8c0.1,100.1-0.1,200.2-0.1,300.4v28.5c-29.5-16.5-55.9-30.7-81.2-45.5l-0.1-0.1
	c-2.9-1.7-5.8-3.4-8.8-5.1c0,0-0.1,0-0.1-0.1c-0.1-0.1-0.2-0.1-0.3-0.2c-2.7-1.7-5.5-3.3-8.2-5c-6-3.6-11.3-13.7-11.3-20.7
	c-0.7-109.7-1.1-219.4-0.1-329.1c0.4-44,23.6-75.5,61.4-96.4c22.9-12.6,45.9-25.1,68.9-37.6c21.1-11.5,42.2-22.9,63.3-34.4
	c1.4-0.8,3.1-0.7,4.5,0.1l10.9,6.3c2,1.2,4.5-0.6,4-2.9l-6-31.4c-0.2-1.3-1.3-2.2-2.6-2.2l-50.8-1.6c-2.8-0.1-3.9,3.7-1.5,5.1
	l8.8,5.1c1.4,0.8,1.4,2.9-0.1,3.7c-18.5,10-37.1,20-55.7,30c-8.4,4.6-16.9,9.1-25.2,13.7c-2.7,1.5-5.3,2.9-7.9,4.4
	c-8.6,4.7-17.1,9.4-25.7,14.2c-52.9,29.4-79.6,74.4-79.4,135.5c0,3.8,0,7.6,0,11.3c0,6.9,0,13.9,0,20.8c0.2,83.8,0,167.6,0,251.4
	c0,0.8,0,1.7,0,2.5c0,2,0,4,0.1,6c0,1.8,0,3.7,0.1,5.5c0,0.3,0,0.5,0,0.8c0,3.5,0.1,7,0.1,10.4c0,1.4,0,2.9,0,4.3v1.1
	c-7.8-4.1-15.7-8.2-23.5-12.3h0l-32.6-17.9c-1.3-0.7-2.5-1.3-3.7-2c-29.8-16.4-48.3-47.7-48.5-81.7c0-1.3,0-2.6,0-3.9l-0.9-287.5
	c1.7-37,25-70.1,60.7-83.5c5.6-4.7,12.1-8.2,18.9-11c3-2.3,6-3.7,8.9-5.4c69.3-38.2,138.7-76.4,208-114.6
	c36.5-16.9,47.8-18.3,57.8-18.4c19.9,0,36.8,4.6,52.9,11.9l30,16.5l219.2,120.9c8,4.4,15.2,9.9,21.5,16.3
	c18.2,18.6,23.3,39.6,25.1,47.3c2.2,9.5,9.8,42.8-8.5,70.2c-6.7,10-13.6,17.4-30.7,26.7c-63.4,34.3-125.4,71.1-188,106.9
	c-4.1,2.4-9.3,6.8-11.3,8.8C829.6,588.8,828.5,590.2,827.6,592.8z"/>
</svg>
